<?xml version="1.0" encoding="UTF-8"?>
<!DOCTYPE svg PUBLIC "-//W3C//DTD SVG 1.1//EN" "http://www.w3.org/Graphics/SVG/1.1/DTD/svg11.dtd">
<svg xmlns="http://www.w3.org/2000/svg" version="1.1" width="1206px" height="364px" style="shape-rendering:geometricPrecision; text-rendering:geometricPrecision; image-rendering:optimizeQuality; fill-rule:evenodd; clip-rule:evenodd" xmlns:xlink="http://www.w3.org/1999/xlink">
<g><path style="opacity:1" fill="#fefefe" d="M 78.5,-0.5 C 85.5,-0.5 92.5,-0.5 99.5,-0.5C 112.756,0.970569 125.422,4.8039 137.5,11C 151.773,20.294 159.94,33.4606 162,50.5C 162.058,84.1933 162.724,117.86 164,151.5C 166.865,160.901 171.531,169.235 178,176.5C 178.667,179.167 178.667,181.833 178,184.5C 168.869,191.962 160.036,199.795 151.5,208C 146.976,212.72 141.976,213.387 136.5,210C 128.86,203.52 122.526,196.02 117.5,187.5C 93.3586,212.202 64.6919,219.369 31.5,209C 12.0407,199.59 1.37399,184.09 -0.5,162.5C -0.5,157.833 -0.5,153.167 -0.5,148.5C 4.07708,115.081 23.0771,94.9143 56.5,88C 74.0222,84.4348 91.6889,81.9348 109.5,80.5C 109.83,72.1067 109.33,63.7733 108,55.5C 101.58,42.2432 91.0798,37.4098 76.5,41C 63.8889,44.3376 56.3889,52.5043 54,65.5C 52.3805,67.7262 50.2138,69.0596 47.5,69.5C 35.1842,67.8908 22.8509,66.3908 10.5,65C 8.33333,64.1667 6.83333,62.6667 6,60.5C 9.7039,33.7885 24.2039,15.6218 49.5,6C 59.1163,2.97992 68.783,0.813256 78.5,-0.5 Z M 97.5,111.5 C 101.5,111.5 105.5,111.5 109.5,111.5C 110.073,123.618 109.24,135.618 107,147.5C 102.008,166.523 89.8409,175.356 70.5,174C 62.3974,170.896 57.5641,165.062 56,156.5C 52.5128,135.625 60.6795,121.791 80.5,115C 86.2647,113.614 91.9314,112.448 97.5,111.5 Z"/></g>
<g><path style="opacity:1" fill="#fefefe" d="M 567.5,-0.5 C 574.5,-0.5 581.5,-0.5 588.5,-0.5C 607.338,0.947246 623.838,7.94725 638,20.5C 645.858,30.066 650.191,41.066 651,53.5C 651.333,84.5 651.667,115.5 652,146.5C 652.384,150.653 653.384,154.653 655,158.5C 658.605,165.1 662.605,171.434 667,177.5C 667.755,180.303 667.422,182.97 666,185.5C 656.167,194 646.333,202.5 636.5,211C 633.167,213 629.833,213 626.5,211C 618.548,204.054 611.714,196.221 606,187.5C 580.975,213.13 551.475,219.963 517.5,208C 500.456,198.591 490.956,184.091 489,164.5C 485.574,129.834 499.74,105.667 531.5,92C 553.402,85.7043 575.735,81.8709 598.5,80.5C 598.993,71.3645 598.16,62.3645 596,53.5C 592.911,46.7438 587.745,42.5771 580.5,41C 559.898,37.9557 547.065,46.4557 542,66.5C 540.53,68.1519 538.697,69.1519 536.5,69.5C 524.172,68.0004 511.838,66.5004 499.5,65C 494.962,63.2871 493.462,60.1205 495,55.5C 499.757,32.073 513.257,15.9063 535.5,7C 546.008,3.20407 556.675,0.704072 567.5,-0.5 Z M 585.5,111.5 C 589.833,111.5 594.167,111.5 598.5,111.5C 598.766,121.874 598.266,132.207 597,142.5C 594.83,154.356 588.997,163.856 579.5,171C 557.722,179.413 545.722,171.913 543.5,148.5C 543.91,132.509 551.576,121.675 566.5,116C 572.89,114.16 579.224,112.66 585.5,111.5 Z"/></g>
<g><path style="opacity:1" fill="#fefefe" d="M 294.5,1.5 C 321.945,-1.45151 341.278,9.54849 352.5,34.5C 368.271,5.1275 392.271,-4.70583 424.5,5C 440.779,11.0364 450.946,22.5364 455,39.5C 456.444,48.9388 457.277,58.4388 457.5,68C 456.721,114.495 456.221,160.995 456,207.5C 455.167,208.333 454.333,209.167 453.5,210C 438.5,210.667 423.5,210.667 408.5,210C 406.951,208.786 405.785,207.286 405,205.5C 404.667,159.833 404.333,114.167 404,68.5C 402.302,56.6344 395.468,50.6344 383.5,50.5C 367.83,52.0042 359.33,60.6709 358,76.5C 357.667,119.167 357.333,161.833 357,204.5C 356.654,206.848 355.487,208.681 353.5,210C 338.5,210.667 323.5,210.667 308.5,210C 307.667,209.167 306.833,208.333 306,207.5C 304.851,187.729 304.351,167.896 304.5,148C 304.521,127.986 304.854,107.986 305.5,88C 305.757,77.2734 303.591,67.1068 299,57.5C 289.801,48.4415 279.635,47.2748 268.5,54C 263.379,58.7399 260.212,64.5732 259,71.5C 257.704,116.138 257.037,160.805 257,205.5C 256.215,207.286 255.049,208.786 253.5,210C 238.5,210.667 223.5,210.667 208.5,210C 207.667,209.167 206.833,208.333 206,207.5C 205.333,141.167 205.333,74.8333 206,8.5C 206.903,7.29857 208.069,6.46524 209.5,6C 223.927,5.03487 238.26,5.3682 252.5,7C 253.126,7.75044 253.626,8.58377 254,9.5C 254.333,18.1667 254.667,26.8333 255,35.5C 262.135,17.0351 275.302,5.70175 294.5,1.5 Z"/></g>
<g><path style="opacity:1" fill="#fefefe" d="M 927.5,1.5 C 975.341,-0.653884 1005.84,21.3461 1019,67.5C 1029.09,105.484 1025.09,141.817 1007,176.5C 983.733,209.928 952.233,221.428 912.5,211C 890.878,203.045 875.378,188.545 866,167.5C 854.223,138.09 851.223,107.756 857,76.5C 861.171,51.9742 872.671,31.8076 891.5,16C 902.448,8.30107 914.448,3.46773 927.5,1.5 Z M 933.5,41.5 C 944.086,39.856 952.586,43.1893 959,51.5C 965.003,65.508 968.003,80.1747 968,95.5C 969.586,115.467 967.919,135.134 963,154.5C 957.032,171.504 945.532,177.337 928.5,172C 920.775,166.068 915.941,158.235 914,148.5C 912.675,142.218 911.675,135.885 911,129.5C 910.333,113.5 910.333,97.5 911,81.5C 911.385,68.0001 915.885,56.1668 924.5,46C 927.592,44.4541 930.592,42.9541 933.5,41.5 Z"/></g>
<g><path style="opacity:1" fill="#fefefe" d="M 1205.5,65.5 C 1205.5,112.167 1205.5,158.833 1205.5,205.5C 1204.4,207.103 1203.07,208.603 1201.5,210C 1186.5,210.667 1171.5,210.667 1156.5,210C 1155.67,209.167 1154.83,208.333 1154,207.5C 1153.67,165.5 1153.33,123.5 1153,81.5C 1153.63,70.3867 1150.13,60.8867 1142.5,53C 1130.61,47.0133 1120.45,49.18 1112,59.5C 1107.53,67.2517 1104.86,75.585 1104,84.5C 1103.67,124.833 1103.33,165.167 1103,205.5C 1102.22,207.286 1101.05,208.786 1099.5,210C 1084.5,210.667 1069.5,210.667 1054.5,210C 1053.67,209.167 1052.83,208.333 1052,207.5C 1051.33,141.167 1051.33,74.8333 1052,8.5C 1052.9,7.29857 1054.07,6.46524 1055.5,6C 1069.93,5.03487 1084.26,5.3682 1098.5,7C 1099.13,7.75044 1099.63,8.58377 1100,9.5C 1100.33,19.1667 1100.67,28.8333 1101,38.5C 1111.46,10.3512 1131.62,-1.81551 1161.5,2C 1183.44,5.94132 1196.94,18.7747 1202,40.5C 1203.55,48.9295 1204.72,57.2628 1205.5,65.5 Z"/></g>
<g><path style="opacity:1" fill="#fefefe" d="M 701.5,4.5 C 743.501,4.33334 785.501,4.50001 827.5,5C 829.329,5.27346 830.829,6.10679 832,7.5C 833.12,12.8932 833.62,18.3932 833.5,24C 833.333,28.8333 833.167,33.6667 833,38.5C 832.529,40.2464 831.862,41.913 831,43.5C 807.833,76.6667 784.667,109.833 761.5,143C 786.663,141.875 810.33,147.208 832.5,159C 834.884,161.379 836.384,164.213 837,167.5C 837.667,178.5 837.667,189.5 837,200.5C 834.928,205.143 831.428,206.643 826.5,205C 784.189,184.335 741.855,184.335 699.5,205C 695.726,206.183 692.559,205.349 690,202.5C 689.065,187.112 689.398,171.779 691,156.5C 715.796,119.739 740.963,83.239 766.5,47C 744.167,46.6667 721.833,46.3333 699.5,46C 697.232,44.4423 696.066,42.2756 696,39.5C 695.333,30.5 695.333,21.5 696,12.5C 696.135,8.5511 697.969,5.88443 701.5,4.5 Z"/></g>
<g><path style="opacity:0.959" fill="#ff9900" d="M 751.5,218.5 C 766.324,217.846 780.991,219.012 795.5,222C 798.993,222.942 802.326,224.275 805.5,226C 807.604,228.042 808.771,230.542 809,233.5C 809.384,267.015 799.384,297.015 779,323.5C 775.167,327.333 771.333,331.167 767.5,335C 759.956,339.806 756.79,337.972 758,329.5C 765.758,310.982 772.091,291.982 777,272.5C 779.294,264.999 778.961,257.666 776,250.5C 771.044,247.215 765.544,245.382 759.5,245C 737.723,244.009 716.056,245.176 694.5,248.5C 687.193,246.75 686.527,243.25 692.5,238C 710.616,226.572 730.282,220.072 751.5,218.5 Z"/></g>
<g><path style="opacity:0.976" fill="#ff9900" d="M 508.5,363.5 C 494.833,363.5 481.167,363.5 467.5,363.5C 366.244,358.143 275.578,324.643 195.5,263C 186.703,255.872 178.203,248.372 170,240.5C 168.345,232.492 171.512,229.659 179.5,232C 289.574,294.433 407.907,322.1 534.5,315C 606.56,309.818 675.893,293.318 742.5,265.5C 754.706,269.285 756.372,275.785 747.5,285C 686.204,326.551 618.537,351.551 544.5,360C 532.356,361.27 520.356,362.436 508.5,363.5 Z"/></g>
</svg>
