<?xml version="1.0" encoding="UTF-8"?>
<!DOCTYPE svg PUBLIC "-//W3C//DTD SVG 1.1//EN" "http://www.w3.org/Graphics/SVG/1.1/DTD/svg11.dtd">
<svg xmlns="http://www.w3.org/2000/svg" version="1.1" width="1042px" height="175px" style="shape-rendering:geometricPrecision; text-rendering:geometricPrecision; image-rendering:optimizeQuality; fill-rule:evenodd; clip-rule:evenodd" xmlns:xlink="http://www.w3.org/1999/xlink">
<g><path style="opacity:1" fill="#fefffe" d="M 55.5,1.5 C 77.0168,-0.692618 97.3501,3.14072 116.5,13C 122.2,16.8543 127.533,21.1876 132.5,26C 125.456,35.922 118.289,45.7553 111,55.5C 95.3794,40.6269 76.8794,34.7936 55.5,38C 47.2974,40.8411 44.4641,46.3411 47,54.5C 49.0795,56.1233 51.2462,57.6233 53.5,59C 67.789,63.1556 82.1223,67.1556 96.5,71C 133.096,84.4244 143.929,109.258 129,145.5C 119.955,159.613 107.121,168.113 90.5,171C 61.0175,176.571 34.0175,170.905 9.5,154C 6.31724,150.985 3.31724,147.818 0.5,144.5C 7.45137,134.231 14.618,124.231 22,114.5C 38.3376,132.391 58.5043,139.557 82.5,136C 87.7891,134.694 91.9557,131.861 95,127.5C 97.6382,122.027 96.4715,117.527 91.5,114C 86.7391,111.413 81.7391,109.413 76.5,108C 65.08,105.312 53.7467,102.312 42.5,99C 11.0185,87.5366 0.185156,65.7032 10,33.5C 19.7778,15.2295 34.9444,4.56279 55.5,1.5 Z"/></g>
<g><path style="opacity:1" fill="#fefffe" d="M 151.5,5.5 C 164.167,5.5 176.833,5.5 189.5,5.5C 189.5,26.8333 189.5,48.1667 189.5,69.5C 212.833,69.5 236.167,69.5 259.5,69.5C 259.5,48.1667 259.5,26.8333 259.5,5.5C 272.167,5.5 284.833,5.5 297.5,5.5C 297.5,61.1667 297.5,116.833 297.5,172.5C 284.833,172.5 272.167,172.5 259.5,172.5C 259.5,149.833 259.5,127.167 259.5,104.5C 236.167,104.5 212.833,104.5 189.5,104.5C 189.5,127.167 189.5,149.833 189.5,172.5C 176.833,172.5 164.167,172.5 151.5,172.5C 151.5,116.833 151.5,61.1667 151.5,5.5 Z"/></g>
<g><path style="opacity:1" fill="#fefffe" d="M 386.5,5.5 C 427.061,3.26495 455.561,20.5983 472,57.5C 484.578,99.4373 473.078,132.937 437.5,158C 399.074,176.647 365.24,170.48 336,139.5C 312.811,106.502 311.811,72.8349 333,38.5C 346.68,20.6319 364.513,9.63188 386.5,5.5 Z M 399.5,44.5 C 406.216,45.8516 412.549,48.3516 418.5,52C 433.776,59.8831 448.609,68.3831 463,77.5C 464.853,96.6057 460.186,113.939 449,129.5C 446.31,133.69 442.81,137.024 438.5,139.5C 416.205,127.033 394.038,114.367 372,101.5C 368.333,88.1667 364.667,74.8333 361,61.5C 360.202,59.7412 360.369,58.0745 361.5,56.5C 374.336,52.664 387.002,48.664 399.5,44.5 Z M 386.5,117.5 C 401.305,126.071 415.972,134.904 430.5,144C 425.239,147.419 419.572,149.419 413.5,150C 403.888,139.566 394.888,128.733 386.5,117.5 Z M 376.5,124.5 C 385.677,134.181 394.343,144.348 402.5,155C 395.914,155.876 389.58,155.042 383.5,152.5C 380.851,143.238 378.518,133.904 376.5,124.5 Z"/></g>
<g><path style="opacity:1" fill="#fefffe" d="M 492.5,5.5 C 521.169,5.33336 549.835,5.50002 578.5,6C 607.612,12.1207 622.612,30.1207 623.5,60C 622.703,89.4512 608.036,107.451 579.5,114C 563.503,114.5 547.503,114.667 531.5,114.5C 531.5,133.833 531.5,153.167 531.5,172.5C 518.5,172.5 505.5,172.5 492.5,172.5C 492.5,116.833 492.5,61.1667 492.5,5.5 Z M 531.5,40.5 C 543.171,40.3335 554.838,40.5001 566.5,41C 577.614,42.448 583.614,48.7813 584.5,60C 583.824,68.7008 579.49,74.7008 571.5,78C 558.227,79.4245 544.894,79.9245 531.5,79.5C 531.5,66.5 531.5,53.5 531.5,40.5 Z"/></g>
<g><path style="opacity:1" fill="#fefffe" d="M 638.5,5.5 C 644.833,5.5 651.167,5.5 657.5,5.5C 657.5,55.5 657.5,105.5 657.5,155.5C 683.5,155.5 709.5,155.5 735.5,155.5C 735.5,161.167 735.5,166.833 735.5,172.5C 703.167,172.5 670.833,172.5 638.5,172.5C 638.5,116.833 638.5,61.1667 638.5,5.5 Z"/></g>
<g><path style="opacity:1" fill="#fefffe" d="M 747.5,5.5 C 753.167,5.5 758.833,5.5 764.5,5.5C 764.5,61.1667 764.5,116.833 764.5,172.5C 758.833,172.5 753.167,172.5 747.5,172.5C 747.5,116.833 747.5,61.1667 747.5,5.5 Z"/></g>
<g><path style="opacity:1" fill="#fefffe" d="M 784.5,5.5 C 790.509,5.33385 796.509,5.50051 802.5,6C 833.789,49.4119 864.956,92.9119 896,136.5C 896.5,92.8346 896.667,49.1679 896.5,5.5C 902.5,5.5 908.5,5.5 914.5,5.5C 914.5,61.1667 914.5,116.833 914.5,172.5C 908.824,172.666 903.157,172.499 897.5,172C 866.333,128.167 835.167,84.3333 804,40.5C 803.5,84.4987 803.333,128.499 803.5,172.5C 797.167,172.5 790.833,172.5 784.5,172.5C 784.5,116.833 784.5,61.1667 784.5,5.5 Z"/></g>
<g><path style="opacity:1" fill="#fefffe" d="M 1041.5,5.5 C 1041.5,11.1667 1041.5,16.8333 1041.5,22.5C 1013.5,22.5 985.5,22.5 957.5,22.5C 957.5,41.1667 957.5,59.8333 957.5,78.5C 985.5,78.5 1013.5,78.5 1041.5,78.5C 1041.5,84.1667 1041.5,89.8333 1041.5,95.5C 1013.5,95.5 985.5,95.5 957.5,95.5C 957.5,115.5 957.5,135.5 957.5,155.5C 985.5,155.5 1013.5,155.5 1041.5,155.5C 1041.5,161.167 1041.5,166.833 1041.5,172.5C 1007.17,172.5 972.833,172.5 938.5,172.5C 938.5,116.833 938.5,61.1667 938.5,5.5C 972.833,5.5 1007.17,5.5 1041.5,5.5 Z"/></g>
<g><path style="opacity:1" fill="#fefffe" d="M 383.5,59.5 C 394.865,59.0284 399.699,64.3618 398,75.5C 390.532,83.8018 383.532,83.4684 377,74.5C 375.407,67.6993 377.574,62.6993 383.5,59.5 Z"/></g>
</svg>
