<?xml version="1.0" encoding="UTF-8"?>
<!DOCTYPE svg PUBLIC "-//W3C//DTD SVG 1.1//EN" "http://www.w3.org/Graphics/SVG/1.1/DTD/svg11.dtd">
<svg xmlns="http://www.w3.org/2000/svg" version="1.1" width="2083px" height="607px" style="shape-rendering:geometricPrecision; text-rendering:geometricPrecision; image-rendering:optimizeQuality; fill-rule:evenodd; clip-rule:evenodd" xmlns:xlink="http://www.w3.org/1999/xlink">
<g><path style="opacity:0.985" fill="#02f1e9" d="M 267.5,-0.5 C 301.167,-0.5 334.833,-0.5 368.5,-0.5C 368.315,7.58362 368.982,15.5836 370.5,23.5C 345.833,23.5 321.167,23.5 296.5,23.5C 296.5,159.167 296.5,294.833 296.5,430.5C 291.343,466.834 271.343,491.001 236.5,503C 201.698,511.731 172.198,502.898 148,476.5C 147.209,475.255 146.709,473.922 146.5,472.5C 184.56,488.721 218.06,482.055 247,452.5C 258.007,439.143 264.674,423.809 267,406.5C 267.5,270.834 267.667,135.167 267.5,-0.5 Z"/></g>
<g><path style="opacity:1" fill="#81aaa8" d="M 370.5,23.5 C 370.5,24.1667 370.5,24.8333 370.5,25.5C 346.241,24.5103 321.908,24.177 297.5,24.5C 297.833,160.001 297.5,295.334 296.5,430.5C 296.5,294.833 296.5,159.167 296.5,23.5C 321.167,23.5 345.833,23.5 370.5,23.5 Z"/></g>
<g><path style="opacity:0.962" fill="#fd044f" d="M 370.5,23.5 C 379.833,23.5 389.167,23.5 398.5,23.5C 397.983,58.9587 409.316,89.9587 432.5,116.5C 399.241,95.051 378.574,64.7176 370.5,25.5C 370.5,24.8333 370.5,24.1667 370.5,23.5 Z"/></g>
<g><path style="opacity:1" fill="#fefefe" d="M 370.5,25.5 C 378.574,64.7176 399.241,95.051 432.5,116.5C 433.5,116.833 434.167,117.5 434.5,118.5C 450.034,135.509 468.701,148.009 490.5,156C 495.991,158.11 501.658,159.277 507.5,159.5C 507.5,186.167 507.5,212.833 507.5,239.5C 457.356,239.005 411.69,224.672 370.5,196.5C 370.44,195.957 370.107,195.624 369.5,195.5C 368.5,265.497 368.167,335.497 368.5,405.5C 361.871,483.591 322.871,538.424 251.5,570C 192.19,591.427 135.856,585.594 82.5,552.5C 81.8333,552.167 81.1667,551.833 80.5,551.5C 31.4893,495.76 17.6559,432.094 39,360.5C 65.1908,294.649 113.024,254.482 182.5,240C 188.455,238.928 194.455,238.428 200.5,238.5C 203.167,238.5 205.833,238.5 208.5,238.5C 209.158,264.855 208.491,290.855 206.5,316.5C 159.343,307.328 125.51,324.328 105,367.5C 93.1284,404.851 101.628,436.685 130.5,463C 135.19,466.677 140.19,469.844 145.5,472.5C 145.833,472.5 146.167,472.5 146.5,472.5C 146.709,473.922 147.209,475.255 148,476.5C 172.198,502.898 201.698,511.731 236.5,503C 271.343,491.001 291.343,466.834 296.5,430.5C 297.5,295.334 297.833,160.001 297.5,24.5C 321.908,24.177 346.241,24.5103 370.5,25.5 Z"/></g>
<g><path style="opacity:0.961" fill="#12eee6" d="M 434.5,118.5 C 457.029,131.55 481.363,138.217 507.5,138.5C 507.5,145.5 507.5,152.5 507.5,159.5C 501.658,159.277 495.991,158.11 490.5,156C 468.701,148.009 450.034,135.509 434.5,118.5 Z"/></g>
<g><path style="opacity:0.977" fill="#fe014f" d="M 507.5,159.5 C 517.313,161.907 527.313,162.907 537.5,162.5C 537.5,196.167 537.5,229.833 537.5,263.5C 486.764,263.53 440.597,249.197 399,220.5C 398.667,289.5 398.333,358.5 398,427.5C 393.662,497.392 361.495,549.892 301.5,585C 279.667,596.336 256.667,603.503 232.5,606.5C 219.5,606.5 206.5,606.5 193.5,606.5C 155.056,601.776 121.056,586.943 91.5,562C 88.2956,558.964 85.2956,555.797 82.5,552.5C 135.856,585.594 192.19,591.427 251.5,570C 322.871,538.424 361.871,483.591 368.5,405.5C 369.167,335.833 369.833,266.167 370.5,196.5C 411.69,224.672 457.356,239.005 507.5,239.5C 507.5,212.833 507.5,186.167 507.5,159.5 Z"/></g>
<g><path style="opacity:1" fill="#fefffe" d="M 644.5,177.5 C 725.169,177.167 805.836,177.5 886.5,178.5C 879.058,200.991 871.725,223.491 864.5,246C 843.503,246.5 822.503,246.667 801.5,246.5C 801.5,330.167 801.5,413.833 801.5,497.5C 775.167,497.5 748.833,497.5 722.5,497.5C 722.5,413.167 722.5,328.833 722.5,244.5C 696.5,244.5 670.5,244.5 644.5,244.5C 644.5,222.167 644.5,199.833 644.5,177.5 Z"/></g>
<g><path style="opacity:1" fill="#fefffe" d="M 930.5,177.5 C 961.821,176.321 976.988,191.321 976,222.5C 972.527,239.306 962.36,249.473 945.5,253C 920.872,255.279 905.705,244.446 900,220.5C 898.878,198.056 909.044,183.723 930.5,177.5 Z"/></g>
<g><path style="opacity:1" fill="#fefffe" d="M 1008.5,177.5 C 1034.17,177.5 1059.83,177.5 1085.5,177.5C 1085.33,226.501 1085.5,275.501 1086,324.5C 1110.5,300 1135,275.5 1159.5,251C 1190.84,250.167 1222.17,250.333 1253.5,251.5C 1221.31,282.191 1189.64,313.357 1158.5,345C 1193.82,396.323 1229.15,447.656 1264.5,499C 1236.83,499.667 1209.17,499.667 1181.5,499C 1157.38,463.727 1132.72,428.894 1107.5,394.5C 1100.48,401.35 1093.32,408.017 1086,414.5C 1085.5,442.165 1085.33,469.831 1085.5,497.5C 1059.83,497.5 1034.17,497.5 1008.5,497.5C 1008.5,390.833 1008.5,284.167 1008.5,177.5 Z"/></g>
<g><path style="opacity:1" fill="#fefffe" d="M 1281.5,177.5 C 1361.83,177.5 1442.17,177.5 1522.5,177.5C 1515.3,200.446 1508.3,223.446 1501.5,246.5C 1480.17,246.5 1458.83,246.5 1437.5,246.5C 1437.5,330.167 1437.5,413.833 1437.5,497.5C 1411.17,497.5 1384.83,497.5 1358.5,497.5C 1358.5,413.167 1358.5,328.833 1358.5,244.5C 1332.83,244.5 1307.17,244.5 1281.5,244.5C 1281.5,222.167 1281.5,199.833 1281.5,177.5 Z"/></g>
<g><path style="opacity:1" fill="#fefffe" d="M 2082.5,496.5 C 2082.5,497.5 2082.5,498.5 2082.5,499.5C 2055.16,499.667 2027.83,499.5 2000.5,499C 1976.38,463.727 1951.72,428.894 1926.5,394.5C 1919.24,401.051 1912.07,407.717 1905,414.5C 1904.5,442.165 1904.33,469.831 1904.5,497.5C 1878.83,497.5 1853.17,497.5 1827.5,497.5C 1827.5,390.833 1827.5,284.167 1827.5,177.5C 1853.17,177.5 1878.83,177.5 1904.5,177.5C 1904.33,226.501 1904.5,275.501 1905,324.5C 1929.5,300 1954,275.5 1978.5,251C 2009.83,250.333 2041.17,250.333 2072.5,251C 2040.46,282.039 2008.8,313.372 1977.5,345C 2011.96,395.944 2046.96,446.444 2082.5,496.5 Z"/></g>
<g><path style="opacity:1" fill="#ec1457" d="M 370.5,196.5 C 369.833,266.167 369.167,335.833 368.5,405.5C 368.167,335.497 368.5,265.497 369.5,195.5C 370.107,195.624 370.44,195.957 370.5,196.5 Z"/></g>
<g><path style="opacity:0.982" fill="#05f1e9" d="M 209.5,237.5 C 206.287,237.19 203.287,237.523 200.5,238.5C 194.455,238.428 188.455,238.928 182.5,240C 113.024,254.482 65.1908,294.649 39,360.5C 17.6559,432.094 31.4893,495.76 80.5,551.5C 34.0925,518.705 7.09252,474.038 -0.5,417.5C -0.5,404.5 -0.5,391.5 -0.5,378.5C 8.40605,314.179 41.0727,266.013 97.5,234C 132.821,216.168 170.154,209.668 209.5,214.5C 209.5,222.167 209.5,229.833 209.5,237.5 Z"/></g>
<g><path style="opacity:0.96" fill="#0befe7" d="M 1636.5,236.5 C 1583.93,244.036 1546.77,272.036 1525,320.5C 1508.63,369.636 1516.63,414.302 1549,454.5C 1573.71,481.437 1604.21,496.437 1640.5,499.5C 1587.44,501.551 1545.94,480.885 1516,437.5C 1493.82,399.128 1490.49,359.128 1506,317.5C 1532.14,262.92 1575.64,235.92 1636.5,236.5 Z"/></g>
<g><path style="opacity:1" fill="#fefefe" d="M 1636.5,236.5 C 1645.5,236.5 1654.5,236.5 1663.5,236.5C 1719.06,245.208 1756.89,275.874 1777,328.5C 1791.42,385.341 1776.59,432.841 1732.5,471C 1710.71,487.096 1686.38,496.596 1659.5,499.5C 1653.17,499.5 1646.83,499.5 1640.5,499.5C 1604.21,496.437 1573.71,481.437 1549,454.5C 1516.63,414.302 1508.63,369.636 1525,320.5C 1546.77,272.036 1583.93,244.036 1636.5,236.5 Z M 1643.5,304.5 C 1671.97,303.977 1693.14,315.977 1707,340.5C 1720.61,378.339 1709.78,406.839 1674.5,426C 1645.59,436.35 1620.76,430.184 1600,407.5C 1581.13,381.748 1580.8,355.748 1599,329.5C 1610.78,315.533 1625.61,307.2 1643.5,304.5 Z"/></g>
<g><path style="opacity:0.96" fill="#fd044f" d="M 1663.5,236.5 C 1710.92,235.298 1749.09,253.298 1778,290.5C 1805.39,331.314 1810.05,374.647 1792,420.5C 1764.85,474.726 1720.68,501.059 1659.5,499.5C 1686.38,496.596 1710.71,487.096 1732.5,471C 1776.59,432.841 1791.42,385.341 1777,328.5C 1756.89,275.874 1719.06,245.208 1663.5,236.5 Z"/></g>
<g><path style="opacity:0.987" fill="#fe014f" d="M 209.5,237.5 C 219.183,237.468 228.849,237.801 238.5,238.5C 238.5,272.833 238.5,307.167 238.5,341.5C 200.656,332.17 169.49,342.504 145,372.5C 123.102,405.959 123.268,439.293 145.5,472.5C 140.19,469.844 135.19,466.677 130.5,463C 101.628,436.685 93.1284,404.851 105,367.5C 125.51,324.328 159.343,307.328 206.5,316.5C 207.209,317.404 208.209,317.737 209.5,317.5C 209.5,290.833 209.5,264.167 209.5,237.5 Z"/></g>
<g><path style="opacity:1" fill="#cdcccd" d="M 200.5,238.5 C 203.287,237.523 206.287,237.19 209.5,237.5C 209.5,264.167 209.5,290.833 209.5,317.5C 208.209,317.737 207.209,317.404 206.5,316.5C 208.491,290.855 209.158,264.855 208.5,238.5C 205.833,238.5 203.167,238.5 200.5,238.5 Z"/></g>
<g><path style="opacity:1" fill="#fefffe" d="M 899.5,279.5 C 925.167,279.5 950.833,279.5 976.5,279.5C 976.5,352.167 976.5,424.833 976.5,497.5C 950.833,497.5 925.167,497.5 899.5,497.5C 899.5,424.833 899.5,352.167 899.5,279.5 Z"/></g>
</svg>
