<?xml version="1.0" encoding="UTF-8"?>
<!DOCTYPE svg PUBLIC "-//W3C//DTD SVG 1.1//EN" "http://www.w3.org/Graphics/SVG/1.1/DTD/svg11.dtd">
<svg xmlns="http://www.w3.org/2000/svg" version="1.1" width="2250px" height="511px" style="shape-rendering:geometricPrecision; text-rendering:geometricPrecision; image-rendering:optimizeQuality; fill-rule:evenodd; clip-rule:evenodd" xmlns:xlink="http://www.w3.org/1999/xlink">
<g><path style="opacity:1" fill="#fefffe" d="M 231.5,-0.5 C 246.833,-0.5 262.167,-0.5 277.5,-0.5C 362.478,9.69103 427.978,50.691 474,122.5C 515.68,195.99 521.68,272.323 492,351.5C 459.594,426.574 404.428,476.408 326.5,501C 310.261,505.415 293.928,508.582 277.5,510.5C 262.167,510.5 246.833,510.5 231.5,510.5C 134.105,497.914 63.9387,447.581 21,359.5C 9.60484,333.504 2.43817,306.504 -0.5,278.5C -0.5,262.833 -0.5,247.167 -0.5,231.5C 10.2124,143.86 53.2124,77.3599 128.5,32C 160.763,14.1919 195.096,3.35857 231.5,-0.5 Z M 243.5,11.5 C 341.792,11.5422 416.292,53.2089 467,136.5C 503.952,207.274 507.285,279.607 477,353.5C 436.849,436.356 371.016,484.189 279.5,497C 189.106,503.374 115.939,471.207 60,400.5C 9.28956,328.467 -1.37711,250.8 28,167.5C 61.6458,87.8584 120.479,37.6917 204.5,17C 217.551,14.4617 230.551,12.6284 243.5,11.5 Z"/></g>
<g><path style="opacity:1" fill="#fefffe" d="M 236.5,35.5 C 300.27,31.9207 355.936,51.0874 403.5,93C 376.066,95.7682 362.899,110.935 364,138.5C 367.874,154.693 374.874,169.36 385,182.5C 403.866,213.359 407.866,246.026 397,280.5C 386.198,316.571 375.198,352.571 364,388.5C 336.994,309.65 310.494,230.65 284.5,151.5C 291.852,151.332 299.185,150.832 306.5,150C 316.519,149.456 319.519,144.622 315.5,135.5C 314.335,134.416 313.002,133.583 311.5,133C 291.197,133.975 270.863,134.808 250.5,135.5C 231.468,135.065 212.468,134.065 193.5,132.5C 186.04,133.125 182.873,137.125 184,144.5C 184.833,146.667 186.333,148.167 188.5,149C 197.386,150.137 206.219,151.304 215,152.5C 226.368,183.604 237.534,214.771 248.5,246C 232.92,294.408 216.753,342.575 200,390.5C 172.988,310.965 146.488,231.299 120.5,151.5C 130.342,151.516 140.008,150.35 149.5,148C 154.984,142.249 154.317,137.249 147.5,133C 127.527,133.898 107.527,134.732 87.5,135.5C 82.1667,135.167 76.8333,134.833 71.5,134.5C 111.048,76.2075 166.048,43.2075 236.5,35.5 Z"/></g>
<g><path style="opacity:1" fill="#fefffe" d="M 446.5,149.5 C 461.206,174.788 470.039,202.122 473,231.5C 479.411,314.151 450.244,380.984 385.5,432C 379.002,436.417 372.335,440.584 365.5,444.5C 365.167,444.167 364.833,443.833 364.5,443.5C 389.388,370.727 414.554,298.061 440,225.5C 447.232,200.603 449.399,175.269 446.5,149.5 Z"/></g>
<g><path style="opacity:0.963" fill="#00749a" d="M 530.5,150.5 C 567.167,150.5 603.833,150.5 640.5,150.5C 640.5,154.167 640.5,157.833 640.5,161.5C 631.79,161.062 623.456,162.562 615.5,166C 611.497,169.174 609.497,173.341 609.5,178.5C 620.684,218.552 633.184,258.219 647,297.5C 663.333,248.833 679.667,200.167 696,151.5C 699.667,150.167 703.333,150.167 707,151.5C 722.799,199.896 738.799,248.229 755,296.5C 767.581,261.757 779.581,226.757 791,191.5C 794.144,183.776 794.144,176.109 791,168.5C 788.125,165.537 784.625,163.704 780.5,163C 774.545,161.928 768.545,161.428 762.5,161.5C 762.5,157.833 762.5,154.167 762.5,150.5C 793.833,150.5 825.167,150.5 856.5,150.5C 856.5,154.167 856.5,157.833 856.5,161.5C 844.424,160.525 833.424,163.358 823.5,170C 817.261,177.638 812.428,186.138 809,195.5C 789.333,254.5 769.667,313.5 750,372.5C 747.544,374.321 744.711,374.988 741.5,374.5C 725.107,323.488 708.607,272.488 692,221.5C 674.702,272.364 657.869,323.364 641.5,374.5C 638.289,374.988 635.456,374.321 633,372.5C 612.593,308.946 591.593,245.612 570,182.5C 561.784,166.472 548.617,159.472 530.5,161.5C 530.5,157.833 530.5,154.167 530.5,150.5 Z"/></g>
<g><path style="opacity:1" fill="#fefffe" d="M 1414.5,150.5 C 1455.52,150.053 1496.52,150.553 1537.5,152C 1558.33,154.659 1575.16,164.159 1588,180.5C 1598.53,200.175 1599.2,220.175 1590,240.5C 1576.5,260.179 1557.67,271.012 1533.5,273C 1518.84,273.5 1504.17,273.667 1489.5,273.5C 1489.33,288.17 1489.5,302.837 1490,317.5C 1489.99,327.441 1492.32,336.775 1497,345.5C 1499.26,348.433 1502.1,350.6 1505.5,352C 1513.01,354.149 1520.68,355.316 1528.5,355.5C 1528.5,359.167 1528.5,362.833 1528.5,366.5C 1490.5,366.5 1452.5,366.5 1414.5,366.5C 1414.5,362.833 1414.5,359.167 1414.5,355.5C 1422.32,355.316 1429.99,354.149 1437.5,352C 1443.06,349.438 1446.89,345.272 1449,339.5C 1451.41,331.687 1452.75,323.687 1453,315.5C 1453.67,277.167 1453.67,238.833 1453,200.5C 1452.75,192.313 1451.41,184.313 1449,176.5C 1444.63,167.051 1437.13,162.218 1426.5,162C 1422.51,161.501 1418.51,161.334 1414.5,161.5C 1414.5,157.833 1414.5,154.167 1414.5,150.5 Z M 1489.5,169.5 C 1501.17,169.333 1512.84,169.5 1524.5,170C 1540.23,172.394 1550.4,181.227 1555,196.5C 1559.35,212.078 1557.35,226.745 1549,240.5C 1542.66,248.256 1534.49,252.756 1524.5,254C 1512.84,254.5 1501.17,254.667 1489.5,254.5C 1489.5,226.167 1489.5,197.833 1489.5,169.5 Z"/></g>
<g><path style="opacity:1" fill="#fefffe" d="M 53.5,165.5 C 54.3764,165.369 55.0431,165.702 55.5,166.5C 90,260.833 124.5,355.167 159,449.5C 159.749,450.635 159.583,451.635 158.5,452.5C 106.893,426.389 70.3935,386.389 49,332.5C 29.7323,276.238 31.2323,220.571 53.5,165.5 Z"/></g>
<g><path style="opacity:0.964" fill="#00749a" d="M 914.5,193.5 C 954.622,191.565 986.455,206.565 1010,238.5C 1031.4,278.806 1025.9,314.973 993.5,347C 961.055,372.728 925.055,379.062 885.5,366C 838.132,346.296 818.632,311.13 827,260.5C 838.067,228.434 859.9,207.601 892.5,198C 899.905,196.16 907.239,194.66 914.5,193.5 Z M 912.5,210.5 C 943.719,206.683 965.553,219.016 978,247.5C 988.037,275.253 986.37,302.253 973,328.5C 957.251,351.091 935.751,359.591 908.5,354C 891.862,349.695 879.695,339.861 872,324.5C 857.51,291.812 859.843,260.479 879,230.5C 888.022,220.079 899.188,213.412 912.5,210.5 Z"/></g>
<g><path style="opacity:1" fill="#fefffe" d="M 2072.5,193.5 C 2075.83,193.5 2079.17,193.5 2082.5,193.5C 2082.5,213.5 2082.5,233.5 2082.5,253.5C 2078.83,253.5 2075.17,253.5 2071.5,253.5C 2069.87,239.398 2063.87,227.565 2053.5,218C 2038.11,207.895 2022.95,208.062 2008,218.5C 2002.84,225.39 2002.18,232.723 2006,240.5C 2009.2,244.036 2012.7,247.203 2016.5,250C 2034.47,258.984 2052.47,267.984 2070.5,277C 2099.75,296.161 2105.25,320.661 2087,350.5C 2065.16,372.53 2039.66,378.03 2010.5,367C 2004.01,364.257 1998.01,360.757 1992.5,356.5C 1988.4,360.873 1985.73,366.04 1984.5,372C 1981.18,372.498 1977.85,372.665 1974.5,372.5C 1974.5,349.5 1974.5,326.5 1974.5,303.5C 1978.17,303.5 1981.83,303.5 1985.5,303.5C 1990.19,335.02 2008.35,352.353 2040,355.5C 2049.94,355.305 2058.27,351.638 2065,344.5C 2069.92,335.593 2069.58,326.927 2064,318.5C 2060.09,313.917 2055.59,310.083 2050.5,307C 2032.01,297.922 2013.68,288.589 1995.5,279C 1972.95,260.6 1968.79,238.767 1983,213.5C 1998.19,197.771 2016.69,191.605 2038.5,195C 2048.87,196.399 2058.2,200.232 2066.5,206.5C 2069.32,202.535 2071.32,198.202 2072.5,193.5 Z"/></g>
<g><path style="opacity:1" fill="#fefffe" d="M 2249.5,309.5 C 2249.5,316.167 2249.5,322.833 2249.5,329.5C 2241.6,354.202 2224.6,368.369 2198.5,372C 2178.46,373.82 2160.46,368.653 2144.5,356.5C 2140.52,361.118 2138.19,366.451 2137.5,372.5C 2133.83,372.5 2130.17,372.5 2126.5,372.5C 2126.5,349.5 2126.5,326.5 2126.5,303.5C 2130.23,303.177 2133.89,303.511 2137.5,304.5C 2143.25,337.696 2162.92,354.529 2196.5,355C 2210.65,353.517 2218.98,345.85 2221.5,332C 2220.92,325.588 2218.42,320.088 2214,315.5C 2209.61,311.388 2204.78,307.888 2199.5,305C 2185.5,298.333 2171.5,291.667 2157.5,285C 2138.79,275.294 2128.46,259.961 2126.5,239C 2128.46,219.032 2138.8,205.365 2157.5,198C 2179.29,191.013 2199.63,193.847 2218.5,206.5C 2221.83,202.829 2223.83,198.496 2224.5,193.5C 2228.17,193.5 2231.83,193.5 2235.5,193.5C 2235.5,213.5 2235.5,233.5 2235.5,253.5C 2231.5,253.5 2227.5,253.5 2223.5,253.5C 2221.98,232.92 2211.65,219.086 2192.5,212C 2179.08,208.397 2167.58,211.563 2158,221.5C 2154.52,228.333 2154.85,235 2159,241.5C 2162.25,245.422 2166.08,248.588 2170.5,251C 2190.81,260.823 2210.81,271.156 2230.5,282C 2239.49,289.462 2245.82,298.629 2249.5,309.5 Z"/></g>
<g><path style="opacity:0.969" fill="#00749a" d="M 1030.5,200.5 C 1064.83,200.333 1099.17,200.5 1133.5,201C 1152.38,202.518 1167.54,210.684 1179,225.5C 1191.96,256.266 1183.13,278.433 1152.5,292C 1148.11,293.181 1143.78,294.514 1139.5,296C 1153.86,312.688 1169.19,328.355 1185.5,343C 1199.52,353.754 1215.18,357.421 1232.5,354C 1240.4,351.403 1244.9,345.903 1246,337.5C 1247.62,303.53 1247.95,269.53 1247,235.5C 1245.68,216.045 1235.18,207.711 1215.5,210.5C 1215.5,207.167 1215.5,203.833 1215.5,200.5C 1253.86,200.05 1292.19,200.55 1330.5,202C 1386.02,211.177 1410.86,243.677 1405,299.5C 1398.53,328.978 1381.03,348.811 1352.5,359C 1343.37,361.949 1334.04,363.949 1324.5,365C 1269.51,366.767 1214.51,366.933 1159.5,365.5C 1141.31,343.144 1123.31,320.644 1105.5,298C 1102.85,297.503 1100.19,297.336 1097.5,297.5C 1097.33,307.839 1097.5,318.172 1098,328.5C 1098.42,349.08 1108.92,358.08 1129.5,355.5C 1129.5,359.167 1129.5,362.833 1129.5,366.5C 1096.5,366.5 1063.5,366.5 1030.5,366.5C 1030.5,362.833 1030.5,359.167 1030.5,355.5C 1050.69,358.192 1061.19,349.525 1062,329.5C 1062.67,298.167 1062.67,266.833 1062,235.5C 1061.69,228.591 1059.69,222.257 1056,216.5C 1048.22,211.776 1039.72,209.776 1030.5,210.5C 1030.5,207.167 1030.5,203.833 1030.5,200.5 Z M 1097.5,215.5 C 1107.2,215.302 1116.87,215.802 1126.5,217C 1141.56,221.914 1149.23,232.414 1149.5,248.5C 1149.15,259.032 1145.15,267.865 1137.5,275C 1133.72,277.225 1129.72,278.891 1125.5,280C 1116.17,280.5 1106.84,280.666 1097.5,280.5C 1097.5,258.833 1097.5,237.167 1097.5,215.5 Z M 1282.5,215.5 C 1294.86,215.362 1307.19,215.862 1319.5,217C 1345.98,222.483 1361.15,238.65 1365,265.5C 1367.73,283.587 1366.06,301.254 1360,318.5C 1351.44,336.378 1337.28,346.545 1317.5,349C 1309.5,349.667 1301.5,349.667 1293.5,349C 1285.88,346.295 1282.38,340.795 1283,332.5C 1282.5,293.501 1282.33,254.501 1282.5,215.5 Z"/></g>
<g><path style="opacity:1" fill="#fefffe" d="M 1607.5,200.5 C 1641.83,200.333 1676.17,200.5 1710.5,201C 1727.91,202.456 1742.41,209.623 1754,222.5C 1769.72,254 1761.55,277.167 1729.5,292C 1725.11,293.181 1720.78,294.514 1716.5,296C 1729.83,311.325 1743.83,325.992 1758.5,340C 1768.57,348.281 1780.07,353.448 1793,355.5C 1800.45,355.353 1806.79,352.687 1812,347.5C 1815.73,338.573 1817.4,329.24 1817,319.5C 1817.86,289.816 1817.53,260.149 1816,230.5C 1815.58,220.796 1810.74,214.629 1801.5,212C 1795.89,210.869 1790.22,210.369 1784.5,210.5C 1784.5,207.167 1784.5,203.833 1784.5,200.5C 1833.5,200.5 1882.5,200.5 1931.5,200.5C 1932.65,216.156 1933.65,231.823 1934.5,247.5C 1931.5,247.5 1928.5,247.5 1925.5,247.5C 1924.63,237.71 1920.97,229.21 1914.5,222C 1909.48,219.327 1904.15,217.66 1898.5,217C 1883.18,215.97 1867.85,215.47 1852.5,215.5C 1852.5,233.833 1852.5,252.167 1852.5,270.5C 1860.87,270.623 1869.2,270.123 1877.5,269C 1885.9,268.234 1890.73,263.734 1892,255.5C 1892.5,250.845 1892.67,246.179 1892.5,241.5C 1896.17,241.5 1899.83,241.5 1903.5,241.5C 1903.5,266.5 1903.5,291.5 1903.5,316.5C 1899.83,316.5 1896.17,316.5 1892.5,316.5C 1892.8,310.423 1892.3,304.423 1891,298.5C 1888.19,291.67 1883.03,288.17 1875.5,288C 1867.85,287.223 1860.18,286.723 1852.5,286.5C 1852.1,302.21 1852.6,317.877 1854,333.5C 1855.94,342.442 1861.44,347.608 1870.5,349C 1882.17,349.667 1893.83,349.667 1905.5,349C 1915.03,348.948 1922.86,345.448 1929,338.5C 1932.07,332.116 1934.24,325.449 1935.5,318.5C 1938.5,318.5 1941.5,318.5 1944.5,318.5C 1943.17,334.474 1942.17,350.474 1941.5,366.5C 1873.16,366.833 1804.83,366.5 1736.5,365.5C 1718.31,343.144 1700.31,320.644 1682.5,298C 1679.85,297.503 1677.19,297.336 1674.5,297.5C 1674.33,307.839 1674.5,318.172 1675,328.5C 1675.42,349.075 1685.92,358.075 1706.5,355.5C 1706.5,359.167 1706.5,362.833 1706.5,366.5C 1673.5,366.5 1640.5,366.5 1607.5,366.5C 1607.5,362.833 1607.5,359.167 1607.5,355.5C 1628.08,358.075 1638.58,349.075 1639,328.5C 1639.67,297.833 1639.67,267.167 1639,236.5C 1638.11,216.457 1627.61,207.79 1607.5,210.5C 1607.5,207.167 1607.5,203.833 1607.5,200.5 Z M 1674.5,215.5 C 1684.2,215.302 1693.87,215.802 1703.5,217C 1712.74,219.244 1719.24,224.744 1723,233.5C 1727.48,245.054 1726.81,256.387 1721,267.5C 1716.47,274.019 1710.3,278.185 1702.5,280C 1693.17,280.5 1683.84,280.666 1674.5,280.5C 1674.5,258.833 1674.5,237.167 1674.5,215.5 Z"/></g>
<g><path style="opacity:1" fill="#fefffe" d="M 257.5,273.5 C 259.284,274.574 260.451,276.24 261,278.5C 282.97,339.41 305.137,400.243 327.5,461C 327.095,461.945 326.428,462.612 325.5,463C 282.901,476.748 239.901,478.082 196.5,467C 194.714,466.804 193.381,465.971 192.5,464.5C 214.467,400.907 236.134,337.241 257.5,273.5 Z"/></g>
</svg>
